<?xml version="1.0" encoding="UTF-8" standalone="no"?><!DOCTYPE svg PUBLIC "-//W3C//DTD SVG 1.1//EN" "http://www.w3.org/Graphics/SVG/1.1/DTD/svg11.dtd"><svg width="100%" height="100%" viewBox="0 0 255 290" version="1.1" xmlns="http://www.w3.org/2000/svg" xmlns:xlink="http://www.w3.org/1999/xlink" xml:space="preserve" xmlns:serif="http://www.serif.com/" style="fill-rule:evenodd;clip-rule:evenodd;stroke-linejoin:round;stroke-miterlimit:2;"><g><path d="M88.83,290l-88.83,-0l-0,-290l119.2,-0c87.6,-0 119.2,40 119.2,91.2c-0,32 -14.8,60.8 -43.2,76l59.2,122.8l-129.132,-0c-0,-1.423 -0,-2.895 0,-4.416c0.003,-29.92 0.035,-40.504 -0.375,-44.641c-0.173,-1.746 -0.469,-2.57 -0.791,-3.106c-0.315,-0.527 -0.687,-0.782 -1.193,-1.308c-0.711,-0.738 -1.856,-1.479 -2.481,-1.795c0.049,-0.252 0.127,-0.62 0.22,-0.959c0.199,-0.725 0.493,-1.919 0.652,-2.653c0.155,-0.703 0.533,-2.321 0.841,-3.591c0.313,-1.286 0.67,-2.78 0.795,-3.316c0.123,-0.528 0.344,-1.451 0.493,-2.05c0.153,-0.614 0.383,-1.593 0.512,-2.172c0.297,-1.331 0.565,-2.46 1.411,-5.926c0.387,-1.588 0.803,-3.359 0.923,-3.935c0.118,-0.558 0.513,-2.224 0.879,-3.699c0.754,-3.043 1.114,-4.58 1.44,-6.143c0.116,-0.558 0.458,-1.986 0.757,-3.174c0.309,-1.223 0.682,-2.754 0.83,-3.402c0.142,-0.628 0.363,-1.541 0.489,-2.029c0.238,-0.922 1.164,-4.82 2.1,-8.84c0.626,-2.687 1.205,-4.979 1.516,-6.004c0.18,-0.591 0.311,-1.373 0.311,-1.731c-0,-0.17 0.086,-0.537 0.173,-0.818l0.001,-0.005c0.343,-1.133 0.681,-2.471 1.461,-5.814c0.354,-1.516 0.751,-3.103 0.885,-3.527c0.191,-0.594 0.328,-1.386 0.328,-1.748c0,-0.167 0.091,-0.524 0.179,-0.799l0.001,-0.001c0.144,-0.454 0.574,-2.146 0.951,-3.766c0.363,-1.555 0.762,-3.23 0.887,-3.725c0.13,-0.505 0.358,-1.457 0.506,-2.111c0.442,-1.948 1.582,-6.771 1.843,-7.795c0.453,-1.782 0.728,-2.913 1.155,-4.757c0.229,-0.984 0.519,-2.192 0.646,-2.684c0.135,-0.526 0.318,-1.323 0.406,-1.773c0.08,-0.403 0.243,-1.125 0.363,-1.602c0.743,-2.942 1.62,-6.561 1.864,-7.69c0.438,-2.029 0.651,-2.93 1.236,-5.258c0.308,-1.224 0.679,-2.754 0.827,-3.401c0.142,-0.628 0.363,-1.541 0.488,-2.03c0.13,-0.5 0.539,-2.204 0.911,-3.786c0.364,-1.553 0.767,-3.226 0.895,-3.721c1.959,-7.569 2.202,-9.262 2.216,-15.02c0.014,-5.565 -0.141,-6.873 -1.359,-11.654c-0.917,-3.605 -1.766,-5.87 -3.46,-9.23c-4.025,-7.98 -10.465,-14.789 -18.2,-19.245c-1.913,-1.102 -2.897,-1.586 -5.6,-2.752c-1.472,-0.634 -4.94,-1.731 -6.804,-2.15c-16.701,-3.753 -33.478,1.554 -44.785,14.159c-2.315,2.58 -5.978,8.04 -7.357,10.961c-1.102,2.336 -2.673,6.87 -3.152,9.09c-0.165,0.767 -0.4,1.794 -0.521,2.283c-0.609,2.435 -0.899,8.411 -0.567,11.997c0.388,4.204 0.57,5.183 1.994,10.592c0.32,1.216 0.613,2.453 0.613,2.76c0,0.236 0.028,0.474 0.075,0.692l0.246,0.688l0.197,0.284c0.006,0.498 0.148,1.354 0.33,1.921c0.467,1.461 1.31,4.961 1.425,5.938l0,0.002c0.076,0.642 0.254,1.287 0.406,1.619l0.36,0.548c-0.066,-0.071 -0.209,-0.316 -0.209,-0.316c-0,0 0.019,0.089 0.019,0.136c-0,0.47 0.143,1.332 0.329,1.914c0.292,0.911 1.227,4.631 1.529,6.076c0.327,1.562 0.686,3.1 1.44,6.142c0.366,1.477 0.766,3.146 0.887,3.708c0.391,1.814 1.497,6.49 2.065,8.731c0.126,0.498 0.346,1.37 0.488,1.939l0.001,0.003c0.144,0.566 0.679,2.826 1.191,5.021c0.519,2.225 1.052,4.455 1.183,4.958l0,0.002c0.237,0.909 1.343,5.581 1.829,7.721c0.149,0.654 0.378,1.605 0.508,2.114l0.001,0.004c0.128,0.494 0.527,2.166 0.889,3.718c0.377,1.615 0.805,3.304 0.947,3.756l0.001,0.003c0.087,0.277 0.178,0.638 0.178,0.806c0,0.357 0.13,1.138 0.309,1.729l0,0.002c0.285,0.937 0.893,3.347 1.283,5.086c0.164,0.726 0.403,1.736 0.533,2.244c0.209,0.823 0.689,2.843 2.058,8.649c0.86,3.657 2.353,9.845 2.599,10.785c0.127,0.491 0.647,2.685 1.153,4.875c0.513,2.226 1.041,4.459 1.171,4.962c0.125,0.485 0.356,1.454 0.513,2.152c0.163,0.724 0.462,1.967 0.666,2.764c0.197,0.771 0.53,2.152 0.737,3.066l0.001,0.002c0.213,0.93 0.699,2.978 1.081,4.552c0.918,3.776 1.075,4.437 1.344,5.688l-0.348,0.197c-0.901,0.509 -2.006,1.39 -2.473,1.943l-0.001,0.002c-0.419,0.499 -0.716,0.741 -0.975,1.303c-0.235,0.511 -0.45,1.33 -0.572,3.043c-0.302,4.224 -0.248,15.01 -0.193,45.05c0.003,1.24 0.005,2.47 0.008,3.688Zm21.164,-234.621c1.783,1.071 4.472,2.869 5.442,3.711c0.508,0.442 1.046,0.905 1.192,1.026c0.127,0.106 1.133,1.168 2.236,2.347c6.562,7.011 10.258,16.271 10.271,25.743c0.003,1.823 -0.09,3.991 -0.213,4.817c-0.131,0.868 -0.43,2.984 -0.668,4.7l0,0.002c-0.231,1.688 -0.53,3.693 -0.662,4.455l-0,0.003c-0.148,0.862 -0.264,1.999 -0.264,2.526c0,0.387 -0.102,1.11 -0.219,1.606c-0.147,0.626 -0.52,2.935 -0.823,5.134c-0.295,2.136 -0.648,4.7 -0.786,5.697c-0.138,0.999 -0.366,2.693 -0.508,3.764c-0.351,2.662 -1.136,8.127 -1.82,12.662c-0.14,0.936 -0.358,2.527 -0.484,3.535c-0.392,3.144 -0.76,5.826 -0.896,6.478l-0.001,0.006c-0.076,0.37 -0.265,1.58 -0.418,2.69c-0.147,1.066 -0.383,2.753 -0.524,3.748c-0.142,1.001 -0.367,2.639 -0.5,3.64c-0.282,2.123 -0.604,4.397 -1.151,8.137c-0.219,1.499 -0.52,3.602 -0.668,4.673l-0.001,0.002c-0.146,1.068 -0.388,2.814 -0.535,3.883c-0.148,1.066 -0.369,2.635 -0.491,3.489c-0.124,0.859 -0.354,2.559 -0.512,3.776c-0.149,1.157 -0.376,2.578 -0.509,3.157l-0,0.004c-0.164,0.723 -0.29,1.689 -0.29,2.142c0,0.334 -0.106,1.172 -0.226,1.867c-0.14,0.805 -0.386,2.473 -0.548,3.704c-0.158,1.203 -0.453,3.288 -0.656,4.632c-0.204,1.359 -0.492,3.35 -0.639,4.423c-0.145,1.064 -0.375,2.691 -0.51,3.612l0,0.003c-0.134,0.926 -0.543,3.845 -0.906,6.483c-0.362,2.62 -0.763,5.398 -0.89,6.177c-0.131,0.793 -0.374,2.509 -0.54,3.81c-0.161,1.274 -0.458,3.415 -0.657,4.759c-0.163,1.097 -0.383,2.606 -0.542,3.709c-0.059,-14.896 -0.084,-46.146 -0.084,-81.996l0,-88.736Zm-6.333,170.588c-0.066,-0.479 -0.127,-0.928 -0.176,-1.281c-0.13,-0.961 -0.343,-2.531 -0.471,-3.491c-0.128,-0.964 -0.476,-3.448 -0.774,-5.519c-0.296,-2.063 -0.661,-4.626 -0.811,-5.693c-0.151,-1.07 -0.387,-2.706 -0.522,-3.633l-0,-0.002c-0.685,-4.659 -1.024,-7.042 -1.285,-9.04c-0.444,-3.381 -1.22,-8.858 -1.565,-11.047c-0.228,-1.443 -0.468,-3.142 -1.047,-7.412c-0.131,-0.964 -0.36,-2.599 -0.507,-3.635c-0.146,-1.026 -0.369,-2.674 -0.492,-3.663l0,-0.002c-0.127,-1.01 -0.422,-3.016 -0.655,-4.458c-0.227,-1.408 -0.533,-3.483 -0.678,-4.611c-0.589,-4.554 -0.726,-5.539 -0.864,-6.296l0,-0.001c-0.077,-0.423 -0.433,-2.897 -0.793,-5.5c-0.365,-2.64 -0.773,-5.559 -0.908,-6.486c-0.134,-0.922 -0.371,-2.606 -0.527,-3.742c-0.158,-1.151 -0.411,-2.856 -0.561,-3.79l-0,-0.003c-0.148,-0.913 -0.374,-2.467 -0.505,-3.452c-1.265,-9.561 -2.228,-16.263 -2.572,-17.934c-0.122,-0.59 -0.225,-1.467 -0.225,-1.947c-0,-0.647 -0.13,-1.756 -0.29,-2.462c-0.275,-1.213 -1.053,-6.598 -2.053,-14.171c-1.055,-7.995 -0.878,-12.949 0.722,-18.806l0,-0.002c0.202,-0.743 0.553,-1.721 0.607,-1.872l0.071,-0.088l0.239,-0.456l0.147,-0.496l0.02,-0.207c-0,-0 0.009,-0.032 0.015,-0.051c0.368,-1.184 2.286,-4.909 3.532,-6.825c2.828,-4.349 5.376,-7.09 9.425,-10.132c1.182,-0.888 2.417,-1.706 3.431,-2.296c0.099,9.264 0.173,45.613 0.173,88.662c-0,45.278 -0.022,69.954 -0.101,81.84Zm13.699,-5.89c0.296,-2.152 0.472,-3.397 0.773,-5.511c0.235,-1.633 0.539,-3.725 0.678,-4.649l0.001,-0.002c0.14,-0.933 0.363,-2.519 0.495,-3.525c0.778,-5.928 1.171,-8.596 1.543,-10.47c0.158,-0.785 0.28,-1.876 0.28,-2.423c0,-0.408 0.1,-1.223 0.217,-1.813c0.14,-0.707 0.394,-2.365 0.564,-3.685l-0,-0.002c0.161,-1.27 0.446,-3.291 0.63,-4.492c0.188,-1.217 0.475,-3.212 0.639,-4.432c0.364,-2.721 0.705,-5.156 1.038,-7.427c0.141,-0.96 0.434,-2.973 0.651,-4.469c0.216,-1.493 0.504,-3.473 0.641,-4.398c0.138,-0.938 0.323,-2.297 0.41,-3.019l0.001,-0.003c0.084,-0.705 0.25,-1.972 0.367,-2.819c0.443,-3.176 1.294,-9.101 1.541,-10.727c0.142,-0.932 0.384,-2.635 0.537,-3.783c0.153,-1.133 0.384,-2.817 0.516,-3.741c0.134,-0.926 0.425,-2.965 0.649,-4.532c0.771,-5.385 0.889,-6.229 1.168,-8.299c0.599,-4.439 0.827,-5.991 1.176,-7.989c0.221,-1.255 0.391,-2.686 0.391,-3.178c-0,-0.369 0.097,-1.081 0.209,-1.58c0.142,-0.633 0.389,-2.125 0.545,-3.315c0.149,-1.134 0.515,-3.748 0.812,-5.807c0.814,-5.635 1.016,-7.197 1.271,-9.781c0.126,-1.279 0.313,-3.113 0.413,-4.076c0.292,-2.795 -0.447,-9.423 -1.507,-13.321c-1.947,-7.162 -5.985,-14.16 -11.23,-19.454c-0.343,-0.347 -0.696,-0.697 -1.044,-1.036c0.93,0.393 1.912,0.832 2.859,1.282c7.305,3.476 14.502,10.756 18.011,18.212c1.108,2.355 1.588,3.453 1.751,4.137l0.001,0.003c0.129,0.534 0.364,1.101 0.536,1.409c-0,-0 0.114,0.346 0.153,0.551c0.082,0.439 0.281,1.348 0.439,2.013c1.337,5.604 1.435,12.259 0.247,17.415c-0.351,1.519 -0.644,2.717 -0.972,3.969c-0.281,1.073 -1.418,5.866 -1.887,7.952l-0,0.003c-0.139,0.624 -0.357,1.532 -0.484,2.016c-0.212,0.811 -0.599,2.374 -1.286,5.206c-0.121,0.499 -0.591,2.421 -1.046,4.269c-0.459,1.873 -0.941,3.908 -1.069,4.519c-0.532,2.522 -0.735,3.407 -1.37,5.967c-0.372,1.505 -0.793,3.236 -0.933,3.844c-0.139,0.604 -0.367,1.595 -0.507,2.2c-0.139,0.603 -0.553,2.312 -0.921,3.797c-0.378,1.533 -0.743,3.086 -0.812,3.451c-0.063,0.333 -0.215,0.986 -0.336,1.451c-0.29,1.104 -2.004,8.261 -2.37,9.892c-0.14,0.621 -0.362,1.523 -0.492,2.005c-0.362,1.327 -1.301,5.192 -1.578,6.493c-0.674,3.152 -1.068,4.869 -1.489,6.466c-0.459,1.736 -0.777,3.018 -1.045,4.196c-0.432,1.9 -1.58,6.761 -1.826,7.73c-0.13,0.51 -0.355,1.462 -0.501,2.117l-0,0.003c-0.141,0.635 -0.56,2.364 -0.929,3.843c-0.379,1.511 -0.807,3.279 -0.951,3.927c-0.138,0.625 -0.352,1.534 -0.477,2.019l-0.001,0.006c-0.248,0.98 -1.408,5.888 -1.843,7.807c-0.143,0.626 -0.362,1.535 -0.49,2.021l-0.001,0.004c-0.13,0.502 -0.662,2.734 -1.181,4.957c-1.146,4.912 -1.293,5.54 -1.575,6.606Zm-20.913,-0.051c-0.063,-0.253 -0.127,-0.501 -0.196,-0.766c-0.145,-0.562 -0.565,-2.296 -0.932,-3.85c-0.371,-1.568 -0.894,-3.782 -1.164,-4.921c-0.269,-1.14 -0.794,-3.353 -1.164,-4.92c-0.374,-1.581 -0.785,-3.285 -0.916,-3.789c-0.128,-0.494 -0.528,-2.166 -0.89,-3.717c-0.378,-1.62 -0.807,-3.313 -0.952,-3.766l-0.001,-0.001c-0.091,-0.283 -0.178,-0.673 -0.178,-0.87c-0,-0.453 -0.147,-1.222 -0.336,-1.71c-0.11,-0.286 -0.317,-1.093 -0.467,-1.787c-0.173,-0.804 -0.478,-2.063 -0.676,-2.796l-0,-0.002c-0.325,-1.194 -0.476,-1.834 -1.165,-4.916l-0,-0.002c-0.156,-0.693 -0.391,-1.675 -0.523,-2.185c-0.745,-2.877 -1.347,-5.353 -1.516,-6.244c-0.216,-1.144 -1.491,-6.536 -1.897,-8.02l-0.001,-0.003c-0.132,-0.478 -0.334,-1.316 -0.453,-1.861c-0.657,-3.02 -1.809,-7.768 -2.108,-8.706l-0.001,-0.003c-0.088,-0.275 -0.18,-0.632 -0.18,-0.798c-0,-0.363 -0.138,-1.155 -0.33,-1.754c-0.133,-0.419 -0.53,-2.005 -0.884,-3.522c-0.368,-1.583 -0.777,-3.288 -0.908,-3.792c-0.129,-0.495 -0.531,-2.168 -0.895,-3.72c-0.372,-1.582 -0.781,-3.287 -0.911,-3.791c-0.125,-0.484 -0.342,-1.396 -0.483,-2.022c-0.369,-1.641 -2.083,-8.794 -2.371,-9.893c-0.222,-0.85 -1.288,-5.337 -1.804,-7.593c-0.372,-1.635 -1.943,-8.157 -3.092,-12.843c-0.567,-2.313 -1.204,-5.18 -1.415,-6.374c-0.441,-2.499 -0.505,-8.98 -0.111,-11.354c0.388,-2.324 1.595,-6.705 1.642,-6.874l0.066,-0.085l0.197,-0.429l0.12,-0.475l0.043,-0.499c-0,-0.057 0.03,-0.145 0.058,-0.198c0.133,-0.249 0.704,-1.488 1.262,-2.747c2.22,-5.015 6.433,-10.427 10.917,-14.039c3.24,-2.61 5.599,-4.03 10.006,-6.025c-3.666,3.593 -6.898,8.101 -9.302,13.051c-2.296,4.724 -3.738,10.43 -4.276,17c-0.165,2.015 0.264,7.679 0.908,11.765c0.133,0.845 0.367,2.513 0.521,3.71l-0,0.002c0.158,1.223 0.394,2.928 0.526,3.792c0.433,2.827 1.036,6.947 1.305,8.91c0.644,4.704 0.794,5.777 1.295,9.206c0.289,1.986 0.641,4.482 0.78,5.546c0.14,1.073 0.369,2.743 0.509,3.71c0.338,2.356 0.671,4.79 1.016,7.425c0.17,1.305 0.374,2.56 0.442,2.809c0.056,0.209 0.208,1.27 0.352,2.371c0.646,4.93 1.589,11.592 2.353,16.607c0.14,0.913 0.353,2.468 0.474,3.452c0.316,2.573 1.297,9.521 1.477,10.461c0.139,0.727 0.329,2.076 0.868,6.127c0.133,1.001 0.359,2.64 0.504,3.642c0.143,0.997 0.442,3.093 0.666,4.66c0.222,1.568 0.514,3.607 0.646,4.533l0,0.001c0.133,0.92 0.353,2.542 0.491,3.605l0,0.002c0.142,1.078 0.383,2.782 0.536,3.788l0.001,0.001c0.153,0.992 0.445,3.02 0.65,4.508c0.207,1.508 0.434,3.095 0.502,3.526c0.067,0.422 0.248,1.689 0.401,2.816c0.156,1.147 0.401,2.849 0.544,3.78c0.083,0.548 0.242,1.633 0.42,2.856Z"/></g></svg>