<?xml version="1.0" encoding="UTF-8" standalone="no"?><!DOCTYPE svg PUBLIC "-//W3C//DTD SVG 1.1//EN" "http://www.w3.org/Graphics/SVG/1.1/DTD/svg11.dtd"><svg width="100%" height="100%" viewBox="0 0 1245 376" version="1.1" xmlns="http://www.w3.org/2000/svg" xmlns:xlink="http://www.w3.org/1999/xlink" xml:space="preserve" xmlns:serif="http://www.serif.com/" style="fill-rule:evenodd;clip-rule:evenodd;stroke-linejoin:round;stroke-miterlimit:2;"><path d="M74.189,291.6l-74.189,-0l0,-280l105.6,-0c70,-0 106.4,38 106.4,88.8c0,34.8 -18,62.8 -48.8,77.2l64.4,114l-116.974,-0c0.001,-1.364 0.001,-2.772 0.001,-4.225c0.003,-29.921 0.034,-40.505 -0.376,-44.642c-0.173,-1.746 -0.468,-2.57 -0.79,-3.106c-0.316,-0.526 -0.688,-0.782 -1.194,-1.307c-0.71,-0.739 -1.855,-1.48 -2.48,-1.795c0.049,-0.253 0.126,-0.621 0.22,-0.959c0.199,-0.725 0.492,-1.92 0.652,-2.654c0.155,-0.703 0.533,-2.32 0.841,-3.59c0.312,-1.287 0.67,-2.78 0.795,-3.317c0.122,-0.527 0.344,-1.45 0.492,-2.05c0.153,-0.614 0.384,-1.592 0.513,-2.172c0.297,-1.331 0.565,-2.459 1.41,-5.926c0.387,-1.587 0.804,-3.358 0.924,-3.935c0.118,-0.558 0.513,-2.224 0.878,-3.698c0.755,-3.043 1.115,-4.581 1.441,-6.143c0.116,-0.558 0.458,-1.987 0.757,-3.175c0.309,-1.223 0.682,-2.754 0.829,-3.401c0.143,-0.628 0.364,-1.541 0.489,-2.03c0.238,-0.922 1.165,-4.819 2.101,-8.839c0.626,-2.688 1.204,-4.979 1.516,-6.005c0.18,-0.59 0.31,-1.372 0.31,-1.73c0,-0.171 0.087,-0.538 0.173,-0.819l0.002,-0.004c0.343,-1.134 0.68,-2.471 1.461,-5.814c0.354,-1.517 0.75,-3.103 0.885,-3.528c0.191,-0.594 0.328,-1.386 0.328,-1.748c-0,-0.166 0.091,-0.524 0.179,-0.798l0,-0.002c0.145,-0.453 0.575,-2.146 0.952,-3.766c0.363,-1.554 0.761,-3.23 0.887,-3.725c0.13,-0.505 0.357,-1.457 0.506,-2.11c0.441,-1.949 1.582,-6.771 1.842,-7.795c0.454,-1.783 0.728,-2.914 1.156,-4.757c0.229,-0.984 0.519,-2.192 0.646,-2.685c0.134,-0.525 0.317,-1.322 0.405,-1.772c0.08,-0.403 0.244,-1.126 0.364,-1.602c0.743,-2.943 1.619,-6.561 1.864,-7.691c0.438,-2.029 0.65,-2.93 1.235,-5.258c0.308,-1.223 0.68,-2.754 0.827,-3.401c0.143,-0.628 0.364,-1.541 0.489,-2.03c0.13,-0.499 0.539,-2.204 0.91,-3.786c0.365,-1.552 0.767,-3.226 0.896,-3.72c1.958,-7.569 2.202,-9.263 2.216,-15.02c0.013,-5.565 -0.141,-6.874 -1.36,-11.654c-0.916,-3.606 -1.765,-5.871 -3.46,-9.231c-4.024,-7.979 -10.464,-14.789 -18.199,-19.245c-1.913,-1.101 -2.898,-1.586 -5.6,-2.751c-1.472,-0.634 -4.94,-1.732 -6.804,-2.151c-16.701,-3.753 -33.478,1.554 -44.785,14.159c-2.316,2.58 -5.979,8.041 -7.357,10.961c-1.102,2.337 -2.673,6.87 -3.152,9.09c-0.165,0.768 -0.4,1.795 -0.522,2.283c-0.608,2.435 -0.898,8.412 -0.566,11.998c0.388,4.204 0.57,5.183 1.993,10.591c0.321,1.216 0.614,2.454 0.614,2.76c-0,0.236 0.027,0.475 0.075,0.692l0.245,0.688l0.198,0.285c0.006,0.497 0.148,1.353 0.329,1.92c0.468,1.462 1.311,4.962 1.426,5.939l-0,0.001c0.076,0.642 0.253,1.287 0.405,1.619l0.36,0.549c-0.065,-0.071 -0.209,-0.317 -0.209,-0.317c0,0 0.02,0.09 0.02,0.136c-0,0.47 0.143,1.333 0.329,1.914c0.291,0.912 1.227,4.631 1.528,6.076c0.327,1.563 0.686,3.1 1.44,6.143c0.367,1.477 0.767,3.145 0.888,3.708c0.391,1.813 1.497,6.49 2.064,8.73c0.127,0.498 0.346,1.371 0.489,1.939l0.001,0.004c0.143,0.565 0.678,2.825 1.19,5.021c0.52,2.224 1.053,4.455 1.183,4.957l0.001,0.002c0.237,0.909 1.343,5.581 1.829,7.722c0.149,0.653 0.377,1.604 0.508,2.113l0.001,0.004c0.128,0.494 0.527,2.166 0.889,3.718c0.377,1.616 0.805,3.305 0.947,3.757l0,0.002c0.088,0.278 0.179,0.638 0.179,0.806c0,0.358 0.13,1.138 0.308,1.729l0.001,0.002c0.285,0.937 0.893,3.347 1.283,5.087c0.164,0.725 0.403,1.735 0.532,2.244c0.21,0.822 0.69,2.842 2.059,8.648c0.86,3.657 2.352,9.846 2.599,10.785c0.127,0.491 0.647,2.686 1.153,4.876c0.512,2.225 1.04,4.458 1.171,4.961c0.124,0.485 0.356,1.455 0.513,2.153c0.163,0.723 0.462,1.967 0.666,2.763c0.197,0.772 0.529,2.152 0.737,3.066l0.001,0.003c0.213,0.929 0.699,2.978 1.081,4.552c0.918,3.775 1.075,4.436 1.344,5.688l-0.349,0.196c-0.9,0.509 -2.006,1.391 -2.472,1.944l-0.001,0.001c-0.42,0.499 -0.716,0.741 -0.975,1.304c-0.236,0.511 -0.45,1.329 -0.572,3.043c-0.302,4.224 -0.248,15.009 -0.193,45.049c0.002,1.176 0.005,2.342 0.008,3.498Zm21.164,-234.43c1.782,1.07 4.472,2.868 5.441,3.71c0.509,0.442 1.047,0.905 1.193,1.027c0.127,0.106 1.133,1.168 2.235,2.346c6.562,7.011 10.259,16.271 10.272,25.743c0.003,1.823 -0.09,3.991 -0.213,4.817c-0.132,0.869 -0.431,2.985 -0.668,4.7l-0,0.002c-0.232,1.688 -0.53,3.694 -0.662,4.456l-0,0.003c-0.148,0.861 -0.264,1.999 -0.264,2.526c-0,0.387 -0.102,1.109 -0.219,1.606c-0.147,0.625 -0.52,2.935 -0.823,5.134c-0.295,2.135 -0.649,4.7 -0.786,5.697c-0.138,0.998 -0.367,2.693 -0.508,3.763c-0.352,2.662 -1.137,8.127 -1.82,12.662c-0.14,0.936 -0.359,2.528 -0.484,3.536c-0.392,3.143 -0.76,5.825 -0.897,6.477l-0.001,0.006c-0.075,0.37 -0.265,1.58 -0.417,2.69c-0.147,1.067 -0.383,2.754 -0.524,3.749c-0.142,1.001 -0.367,2.639 -0.5,3.64c-0.282,2.122 -0.604,4.396 -1.152,8.137c-0.219,1.499 -0.519,3.601 -0.668,4.672l-0,0.002c-0.147,1.068 -0.388,2.815 -0.535,3.883c-0.148,1.067 -0.369,2.636 -0.491,3.489c-0.124,0.859 -0.355,2.56 -0.512,3.777c-0.149,1.156 -0.376,2.577 -0.509,3.157l-0.001,0.004c-0.163,0.723 -0.289,1.688 -0.289,2.141c0,0.335 -0.106,1.173 -0.227,1.867c-0.139,0.805 -0.385,2.473 -0.547,3.704c-0.158,1.204 -0.454,3.288 -0.656,4.633c-0.204,1.359 -0.492,3.35 -0.639,4.423c-0.146,1.064 -0.375,2.69 -0.51,3.612l-0,0.002c-0.134,0.927 -0.543,3.845 -0.907,6.484c-0.362,2.619 -0.762,5.398 -0.889,6.177c-0.131,0.792 -0.374,2.509 -0.54,3.81c-0.162,1.274 -0.458,3.415 -0.658,4.758c-0.163,1.097 -0.382,2.606 -0.541,3.709c-0.059,-14.896 -0.084,-46.145 -0.084,-81.996l0,-88.735Zm-6.334,170.587c-0.065,-0.479 -0.126,-0.927 -0.175,-1.281c-0.131,-0.96 -0.343,-2.53 -0.471,-3.491c-0.129,-0.964 -0.476,-3.448 -0.774,-5.519c-0.297,-2.063 -0.662,-4.625 -0.811,-5.693c-0.152,-1.07 -0.387,-2.706 -0.522,-3.633l-0,-0.001c-0.685,-4.66 -1.024,-7.043 -1.285,-9.04c-0.444,-3.382 -1.22,-8.858 -1.565,-11.047c-0.228,-1.444 -0.469,-3.143 -1.047,-7.412c-0.132,-0.965 -0.36,-2.6 -0.507,-3.636c-0.146,-1.025 -0.369,-2.673 -0.492,-3.663l-0,-0.002c-0.127,-1.009 -0.422,-3.015 -0.655,-4.457c-0.227,-1.408 -0.533,-3.484 -0.678,-4.612c-0.589,-4.553 -0.726,-5.538 -0.864,-6.295l-0,-0.002c-0.078,-0.422 -0.434,-2.897 -0.793,-5.5c-0.365,-2.64 -0.773,-5.559 -0.908,-6.486c-0.135,-0.922 -0.371,-2.606 -0.527,-3.742c-0.158,-1.15 -0.411,-2.856 -0.561,-3.79l-0,-0.002c-0.148,-0.914 -0.375,-2.468 -0.505,-3.452c-1.265,-9.562 -2.229,-16.264 -2.572,-17.934c-0.122,-0.591 -0.225,-1.468 -0.225,-1.947c-0,-0.648 -0.13,-1.756 -0.29,-2.462c-0.275,-1.214 -1.053,-6.599 -2.053,-14.171c-1.056,-7.995 -0.878,-12.95 0.721,-18.807l0.001,-0.001c0.202,-0.744 0.552,-1.722 0.607,-1.873l0.07,-0.088l0.239,-0.455l0.147,-0.496l0.02,-0.208c0,-0 0.01,-0.032 0.015,-0.05c0.369,-1.184 2.286,-4.91 3.533,-6.826c2.828,-4.349 5.376,-7.089 9.425,-10.131c1.181,-0.888 2.417,-1.707 3.431,-2.296c0.098,9.263 0.172,45.612 0.172,88.661c0,45.278 -0.021,69.954 -0.101,81.84Zm13.7,-5.889c0.296,-2.153 0.471,-3.398 0.773,-5.512c0.234,-1.633 0.538,-3.725 0.678,-4.649l0,-0.002c0.14,-0.933 0.364,-2.518 0.496,-3.525c0.778,-5.928 1.17,-8.596 1.543,-10.47c0.157,-0.785 0.28,-1.876 0.28,-2.422c-0,-0.408 0.1,-1.224 0.217,-1.813c0.14,-0.708 0.394,-2.366 0.563,-3.686l0,-0.002c0.162,-1.27 0.447,-3.291 0.631,-4.491c0.188,-1.218 0.474,-3.213 0.638,-4.432c0.365,-2.722 0.705,-5.157 1.039,-7.427c0.14,-0.961 0.434,-2.974 0.651,-4.47c0.215,-1.492 0.504,-3.473 0.641,-4.398c0.138,-0.938 0.323,-2.297 0.41,-3.019l0,-0.003c0.085,-0.704 0.25,-1.972 0.367,-2.818c0.443,-3.177 1.294,-9.102 1.542,-10.728c0.141,-0.932 0.383,-2.635 0.537,-3.783c0.153,-1.132 0.384,-2.817 0.516,-3.74c0.134,-0.927 0.425,-2.966 0.649,-4.533c0.771,-5.385 0.888,-6.228 1.168,-8.299c0.598,-4.439 0.827,-5.991 1.176,-7.988c0.221,-1.256 0.391,-2.686 0.391,-3.179c-0,-0.369 0.096,-1.08 0.209,-1.58c0.141,-0.633 0.388,-2.125 0.545,-3.314c0.149,-1.135 0.515,-3.749 0.812,-5.808c0.813,-5.634 1.015,-7.197 1.271,-9.781c0.126,-1.279 0.313,-3.112 0.413,-4.075c0.291,-2.796 -0.448,-9.424 -1.507,-13.321c-1.947,-7.163 -5.985,-14.16 -11.23,-19.455c-0.344,-0.347 -0.697,-0.696 -1.045,-1.036c0.93,0.393 1.913,0.832 2.859,1.282c7.306,3.476 14.503,10.756 18.012,18.212c1.108,2.355 1.587,3.454 1.751,4.138l0.001,0.002c0.129,0.534 0.364,1.101 0.535,1.409c0,-0 0.115,0.346 0.154,0.551c0.082,0.44 0.28,1.348 0.439,2.014c1.337,5.603 1.435,12.259 0.247,17.414c-0.351,1.519 -0.644,2.717 -0.972,3.969c-0.282,1.073 -1.418,5.867 -1.887,7.953l-0.001,0.002c-0.139,0.625 -0.357,1.532 -0.484,2.016c-0.211,0.811 -0.598,2.375 -1.285,5.207c-0.122,0.498 -0.592,2.42 -1.046,4.269c-0.46,1.873 -0.941,3.907 -1.069,4.519c-0.532,2.522 -0.735,3.406 -1.37,5.966c-0.372,1.505 -0.793,3.236 -0.933,3.845c-0.14,0.604 -0.368,1.595 -0.507,2.2c-0.139,0.602 -0.554,2.311 -0.921,3.797c-0.379,1.533 -0.744,3.086 -0.813,3.451c-0.063,0.332 -0.215,0.986 -0.335,1.451c-0.29,1.103 -2.004,8.26 -2.37,9.892c-0.14,0.62 -0.362,1.523 -0.493,2.005c-0.361,1.326 -1.3,5.191 -1.577,6.492c-0.674,3.153 -1.068,4.87 -1.49,6.466c-0.458,1.736 -0.777,3.019 -1.044,4.196c-0.433,1.9 -1.58,6.761 -1.827,7.73c-0.129,0.51 -0.354,1.463 -0.5,2.117l-0.001,0.003c-0.14,0.635 -0.559,2.365 -0.929,3.843c-0.379,1.512 -0.807,3.279 -0.95,3.927c-0.138,0.625 -0.352,1.534 -0.477,2.019l-0.001,0.006c-0.249,0.98 -1.409,5.888 -1.844,7.807c-0.142,0.626 -0.362,1.535 -0.489,2.021l-0.001,0.004c-0.131,0.503 -0.662,2.734 -1.182,4.958c-1.145,4.912 -1.292,5.54 -1.574,6.606Zm-20.913,-0.052c-0.064,-0.252 -0.127,-0.5 -0.196,-0.765c-0.145,-0.563 -0.566,-2.297 -0.932,-3.851c-0.371,-1.567 -0.894,-3.781 -1.164,-4.921c-0.27,-1.14 -0.795,-3.353 -1.164,-4.92c-0.374,-1.581 -0.785,-3.285 -0.916,-3.788c-0.128,-0.494 -0.529,-2.166 -0.891,-3.718c-0.377,-1.619 -0.807,-3.312 -0.951,-3.765l-0.001,-0.002c-0.091,-0.283 -0.179,-0.672 -0.179,-0.87c0,-0.452 -0.147,-1.221 -0.336,-1.71c-0.109,-0.285 -0.316,-1.093 -0.467,-1.787c-0.173,-0.804 -0.477,-2.063 -0.675,-2.796l-0.001,-0.001c-0.324,-1.195 -0.475,-1.835 -1.164,-4.917l-0.001,-0.002c-0.155,-0.692 -0.39,-1.675 -0.523,-2.185c-0.744,-2.877 -1.346,-5.353 -1.515,-6.244c-0.216,-1.143 -1.492,-6.535 -1.897,-8.02l-0.001,-0.003c-0.132,-0.478 -0.334,-1.315 -0.453,-1.861c-0.657,-3.019 -1.81,-7.768 -2.109,-8.706l-0.001,-0.003c-0.088,-0.274 -0.18,-0.632 -0.18,-0.798c0,-0.363 -0.137,-1.154 -0.329,-1.753c-0.133,-0.42 -0.53,-2.006 -0.884,-3.522c-0.369,-1.583 -0.778,-3.289 -0.909,-3.793c-0.128,-0.494 -0.53,-2.167 -0.895,-3.72c-0.371,-1.582 -0.78,-3.287 -0.911,-3.79c-0.124,-0.484 -0.342,-1.396 -0.483,-2.023c-0.369,-1.64 -2.083,-8.793 -2.37,-9.893c-0.223,-0.85 -1.288,-5.337 -1.804,-7.592c-0.373,-1.636 -1.943,-8.158 -3.092,-12.843c-0.567,-2.313 -1.204,-5.181 -1.415,-6.374c-0.441,-2.499 -0.505,-8.981 -0.111,-11.355c0.387,-2.323 1.594,-6.704 1.641,-6.874l0.067,-0.085l0.197,-0.429l0.12,-0.474l0.043,-0.499c-0,-0.057 0.029,-0.145 0.057,-0.199c0.134,-0.248 0.704,-1.487 1.263,-2.747c2.22,-5.015 6.432,-10.426 10.916,-14.038c3.241,-2.61 5.6,-4.03 10.007,-6.025c-3.666,3.592 -6.898,8.1 -9.302,13.05c-2.296,4.725 -3.738,10.43 -4.277,17c-0.164,2.015 0.265,7.68 0.908,11.765c0.134,0.845 0.368,2.514 0.521,3.711l0.001,0.001c0.158,1.223 0.393,2.928 0.525,3.792c0.434,2.827 1.036,6.948 1.305,8.91c0.644,4.704 0.795,5.777 1.296,9.207c0.288,1.985 0.64,4.481 0.78,5.546c0.14,1.073 0.369,2.742 0.509,3.71c0.337,2.355 0.671,4.789 1.015,7.425c0.17,1.304 0.375,2.559 0.443,2.808c0.056,0.209 0.208,1.271 0.352,2.371c0.645,4.93 1.589,11.592 2.353,16.607c0.139,0.914 0.352,2.468 0.474,3.452c0.316,2.574 1.297,9.522 1.476,10.461c0.14,0.728 0.33,2.077 0.868,6.128c0.133,1.001 0.359,2.639 0.504,3.641c0.143,0.997 0.443,3.093 0.667,4.66c0.222,1.568 0.513,3.607 0.646,4.533l-0,0.002c0.132,0.92 0.352,2.542 0.49,3.604l0.001,0.002c0.142,1.078 0.382,2.783 0.536,3.788l0,0.002c0.153,0.991 0.445,3.019 0.651,4.507c0.207,1.509 0.434,3.095 0.502,3.526c0.067,0.423 0.248,1.69 0.401,2.816c0.156,1.148 0.401,2.849 0.543,3.781c0.083,0.547 0.243,1.632 0.421,2.855Zm235.394,18.984c16.8,-0 38.8,-6.4 66,-25.6l20.4,55.2c-21.6,15.2 -54,27.6 -87.2,27.6c-61.2,-0 -107.6,-43.2 -107.6,-100c0,-56.4 43.2,-100.8 103.2,-100.8c52,-0 94.8,34.4 99.2,95.6l-121.6,39.2c6.8,5.6 16,8.8 27.6,8.8Zm-4.4,-86.4c-20,-0 -33.6,14 -36.8,34.4l64,-20.8c-6.4,-8.4 -16,-13.6 -27.2,-13.6Zm208,143.6c-62,-0 -107.2,-42.8 -107.2,-100.4c-0,-58 46,-100.4 106.8,-100.4c18,-0 34.8,3.6 49.2,8.8l-10,66.8c-12.8,-5.6 -23.6,-8.4 -33.2,-8.4c-22,-0 -36,14.4 -36,32.8c-0,18 13.6,33.2 37.2,33.2c9.6,-0 21.2,-2.4 34.8,-8.8l9.2,66c-16,6.4 -32,10.4 -50.8,10.4Zm102.8,-209.2c-26,-0 -46.8,-20 -46.8,-44.4c-0,-24.4 20.8,-44.4 46.8,-44.4c26,0 46.8,20 46.8,44.4c-0,24.4 -20.8,44.4 -46.8,44.4Zm-40.8,202.8l-0,-184l81.2,-8l-0,192l-81.2,-0Zm220.4,-193.6c49.2,-0 89.2,43.6 89.2,99.6c-0,56 -40.4,99.6 -89.2,99.6c-17.2,0 -32,-5.2 -43.6,-15.2l-0,93.6l-81.2,-0l-0,-268.8l72,-6.8l-0,22.4c12.8,-15.6 30.4,-24.4 52.8,-24.4Zm-18,132.4c18.4,-0 32.4,-14 32.4,-32.8c0,-18.8 -14,-32.8 -32.4,-32.8c-18.4,-0 -32.4,14 -32.4,32.8c0,18.8 14,32.8 32.4,32.8Zm222,10.4c16.8,-0 38.8,-6.4 66,-25.6l20.4,55.2c-21.6,15.2 -54,27.6 -87.2,27.6c-61.2,-0 -107.6,-43.2 -107.6,-100c0,-56.4 43.2,-100.8 103.2,-100.8c52,-0 94.8,34.4 99.2,95.6l-121.6,39.2c6.8,5.6 16,8.8 27.6,8.8Zm-4.4,-86.4c-20,-0 -33.6,14 -36.8,34.4l64,-20.8c-6.4,-8.4 -16,-13.6 -27.2,-13.6Zm163.6,143.6c-22,-0 -44.4,-5.2 -64.4,-14l7.6,-54c16.8,8 33.6,13.2 46.8,13.2c7.6,-0 11.2,-3.6 11.2,-8.4c0,-4.4 -2.8,-7.6 -9.6,-10l-7.6,-2.8c-26.8,-10 -45.6,-30 -45.6,-60.8c0,-37.2 28.4,-64 75.6,-64c19.2,-0 40.8,4.4 60,11.2l-7.6,54c-16,-7.2 -33.6,-12.4 -44.8,-12.4c-7.2,-0 -10.4,4 -10.4,8c0,3.6 2.4,6.8 8,8.8l7.6,2.8c34.8,12.8 51.6,32 51.6,62.8c0,39.6 -30.4,65.6 -78.4,65.6Z"/></svg>